<svg width="25" height="21" viewBox="0 0 25 21" fill="none" xmlns="http://www.w3.org/2000/svg">
<path d="M24.6138 3.34854C23.7092 3.74937 22.7375 4.02021 21.7159 4.14262C22.77 3.5119 23.5586 2.51921 23.9345 1.34979C22.9442 1.93803 21.8603 2.35209 20.73 2.57396C19.97 1.76239 18.9632 1.22448 17.8661 1.04372C16.7689 0.862964 15.6428 1.04948 14.6625 1.57431C13.6823 2.09915 12.9027 2.93293 12.4449 3.94622C11.987 4.95951 11.8765 6.0956 12.1305 7.17812C10.1239 7.07737 8.16081 6.5558 6.36875 5.64727C4.5767 4.73874 2.9957 3.46355 1.72837 1.90446C1.29504 2.65196 1.04588 3.51862 1.04588 4.44162C1.04539 5.27254 1.25001 6.09072 1.64158 6.82358C2.03314 7.55645 2.59955 8.18133 3.29054 8.64279C2.48917 8.61729 1.70549 8.40076 1.00471 8.01121V8.07621C1.00463 9.24159 1.40774 10.3711 2.14566 11.2731C2.88357 12.1751 3.91083 12.794 5.05313 13.0249C4.30972 13.2261 3.53032 13.2557 2.77379 13.1115C3.09608 14.1143 3.72387 14.9912 4.56927 15.6194C5.41468 16.2476 6.43537 16.5957 7.48846 16.615C5.70078 18.0184 3.493 18.7796 1.22029 18.7763C0.817704 18.7764 0.415458 18.7529 0.015625 18.7059C2.32256 20.1891 5.00799 20.9763 7.75063 20.9733C17.0348 20.9733 22.1102 13.2838 22.1102 6.61479C22.1102 6.39812 22.1048 6.17929 22.095 5.96262C23.0823 5.24868 23.9344 4.36459 24.6116 3.35179L24.6138 3.34854Z" fill="white"/>
</svg>
