<svg width="26" height="16" viewBox="0 0 26 16" fill="none" xmlns="http://www.w3.org/2000/svg">
<path fill-rule="evenodd" clip-rule="evenodd" d="M25.4042 1.4435C25.584 0.852004 25.4042 0.416504 24.5429 0.416504H21.6992C20.9755 0.416504 20.6418 0.792421 20.4609 1.20734C20.4609 1.20734 19.0147 4.66967 16.9661 6.91867C16.3031 7.57084 16.0019 7.77776 15.6401 7.77776C15.4592 7.77776 15.1873 7.57084 15.1873 6.97826V1.4435C15.1873 0.732837 14.9879 0.416504 14.3856 0.416504H9.91358C9.46183 0.416504 9.18992 0.745837 9.18992 1.05892C9.18992 1.73167 10.2148 1.88767 10.3198 3.78134V7.89584C10.3198 8.79826 10.1541 8.96184 9.79225 8.96184C8.82808 8.96184 6.48267 5.48326 5.09058 1.50309C4.82083 0.728504 4.54783 0.416504 3.82092 0.416504H0.975C0.1625 0.416504 0 0.792421 0 1.20734C0 1.94617 0.964167 5.61651 4.49042 10.4709C6.84125 13.7859 10.1508 15.5832 13.1658 15.5832C14.9738 15.5832 15.197 15.1845 15.197 14.4966V11.9908C15.197 11.1924 15.3682 11.0332 15.9413 11.0332C16.3638 11.0332 17.0863 11.2412 18.7742 12.8391C20.7025 14.7338 21.0199 15.5832 22.1054 15.5832H24.9492C25.7617 15.5832 26.169 15.1845 25.935 14.3958C25.6772 13.6115 24.7563 12.4729 23.5354 11.122C22.8724 10.3528 21.8779 9.52409 21.5757 9.10917C21.1543 8.57726 21.2745 8.34001 21.5757 7.86659C21.5757 7.86659 25.0423 3.07175 25.4031 1.4435H25.4042Z" fill="white"/>
</svg>
